<?xml version="1.0" encoding="utf-8"?>
<svg version="1.0" xmlns="http://www.w3.org/2000/svg" xmlns:xlink="http://www.w3.org/1999/xlink" x="0px" y="0px"
	 viewBox="0 0 150 105" enable-background="new 0 0 150 105" xml:space="preserve">
<path d="M62.8,83.7h-2.4v-6.1c0-0.6-0.3-0.9-0.9-0.9h-2.2v4.2c0,2-1,2.9-2.9,2.9
	c-0.2,0-0.6-0.1-1-0.2v-2.3c0.3,0.1,0.6,0.1,0.7,0.1c0.3,0,0.6,0,0.7-0.1C55,81.4,55,81.3,55,81v-4.3h-1.4l0.7-2.3h4.9
	c2.4,0,3.6,1.2,3.6,3.7V83.7z M66.7,83.7h-2.4v-9.3h2.4V83.7z M75.1,83.7h-2.4v-5.9c0-0.7-0.3-1.1-1-1.1h-4.1l0.8-2.3h2.9
	c2.6,0,3.8,1.3,3.8,4V83.7z M78.8,79.7h-2.4v-5.3h2.4V79.7z M88.3,83.7h-2.4v-5.9c0-0.7-0.3-1.1-1-1.1H80l0.8-2.3h3.7
	c2.6,0,3.8,1.3,3.8,3.8V83.7z M82.7,83.7h-2.4v-4.8h2.4V83.7z M97.7,81.5l-0.6,2.2h-7.6v-2.2h4.8v-3.7c0-0.4,0-0.6-0.1-0.8
	c-0.1-0.2-0.4-0.3-0.7-0.3h-3.9l0.8-2.3h2.9c2.3,0,3.4,1.2,3.4,3.6l0,3.4H97.7z M88.3,50.5l5.2-5.2l-5.2-5.2v-7.4h-7.4l-5.2-5.2
	l-5.2,5.2h-7.4v7.4l-5.2,5.2l5.2,5.2v7.4h7.4l5.2,5.2l5.2-5.2h7.4C88.3,57.9,88.3,50.5,88.3,50.5z M75.7,54.8V35.8
	c5.2,0,9.5,4.2,9.5,9.5S80.9,54.8,75.7,54.8z"/>

</svg>
