<svg id="Icons" xmlns="http://www.w3.org/2000/svg" xmlns:xlink="http://www.w3.org/1999/xlink" viewBox="0 0 300 500"><defs><style>.cls-1{fill:#212121;}.cls-2{font-size:20px;font-family:Formula-Bold, Formula Bold;font-weight:700;}.cls-3{fill:url(#linear-gradient);}</style><linearGradient id="linear-gradient" x1="69.74" y1="190.64" x2="80.52" y2="203.01" gradientUnits="userSpaceOnUse"><stop offset="0" stop-color="#fff"/><stop offset="1" stop-color="#e8e8e8"/></linearGradient></defs><title>Canvas</title><g id="_Group_" data-name="&lt;Group&gt;"><rect id="_Rectangle_" data-name="&lt;Rectangle&gt;" class="cls-1" x="269.55" y="19.46" width="19.55" height="2.79" transform="translate(96.56 -191.4) rotate(45)"/><rect id="_Rectangle_2" data-name="&lt;Rectangle&gt;" class="cls-1" x="269.55" y="19.46" width="19.55" height="2.79" transform="translate(67.06 203.62) rotate(-45)"/></g><g id="_Group_2" data-name="&lt;Group&gt;"><text class="cls-2" transform="translate(199.87 124.09)">ןטקה</text></g><g id="_Group_3" data-name="&lt;Group&gt;"><text class="cls-2" transform="translate(52.02 124.09)">לדגה</text></g><g id="_Group_4" data-name="&lt;Group&gt;"><text class="cls-2" transform="translate(173.96 229.09)">םיעבצ ךופיה</text></g><g id="_Group_5" data-name="&lt;Group&gt;"><text class="cls-2" transform="translate(32.64 229.09)">לודג רבכע</text></g><g id="_Group_6" data-name="&lt;Group&gt;"><path id="_Compound_Path_" data-name="&lt;Compound Path&gt;" d="M66,90.91H64.27l-.62-.6a14.46,14.46,0,1,0-1.55,1.55l.6.63v1.75l11.11,11.09L77.12,102Zm-13.33,0a10,10,0,1,1,10-10A10,10,0,0,1,52.7,90.91Z"/><path id="_Path_" data-name="&lt;Path&gt;" d="M58.25,82H53.81v4.44H51.58V82H47.14V79.8h4.44V75.35h2.23V79.8h4.44Z"/></g><g id="_Group_7" data-name="&lt;Group&gt;"><g id="_Group_8" data-name="&lt;Group&gt;"><path id="_Compound_Path_2" data-name="&lt;Compound Path&gt;" d="M101.42,99.42l-.3-.41c-2.43-3.33-6.27-8.26-11.4-14.64l-4.8,15H74.5L82,78.51h2.75l-10.93-13H86l.3.34c.91,1,4.34,5.1,10.18,12.06l3.63-12.4h10.38l-6,18H101l12.51,16Zm7.93-2-12.51-16h0l-.73-.87c-6-7.18-9.75-11.59-11.06-13.11h-7l10.81,12.9.06-.17,1.16,1.45c5.52,6.85,9.67,12.15,12.33,15.76Zm-25.89,0,5.39-16.91H83.38l-6,16.91Zm19.56-16,4.68-14h-6.1l-4.1,14Z"/></g></g><g id="_Group_9" data-name="&lt;Group&gt;"><path id="_Compound_Path_3" data-name="&lt;Compound Path&gt;" d="M216.2,90.91h-1.75l-.63-.6a14.46,14.46,0,1,0-1.55,1.55l.6.63v1.75L224,105.33l3.31-3.31Zm-13.33,0a10,10,0,1,1,10-10A10,10,0,0,1,202.87,90.91Z"/><polygon id="_Path_2" data-name="&lt;Path&gt;" points="203.98 79.8 201.76 79.8 201.43 79.8 197.31 79.8 197.31 82.02 201.43 82.02 201.76 82.02 203.98 82.02 208.42 82.02 208.42 79.8 203.98 79.8"/></g><path id="_Compound_Path_4" data-name="&lt;Compound Path&gt;" d="M236.15,182.84,225,171.73l-11.12,11.11a15.71,15.71,0,1,0,22.23,0ZM225,205.74a11.78,11.78,0,0,1-8.33-20.11l8.33-8.34Z"/><g id="_Group_10" data-name="&lt;Group&gt;"><text class="cls-2" transform="translate(184.83 334.13)">רופא ינווג</text></g><g id="_Group_11" data-name="&lt;Group&gt;"><text class="cls-2" transform="translate(41.81 334.13)">תוידוגינ</text></g><g id="_Group_12" data-name="&lt;Group&gt;"><text class="cls-2" transform="translate(193.9 439.17)">תוריהב</text></g><g id="_Group_13" data-name="&lt;Group&gt;"><text class="cls-2" transform="translate(26.16 439.17)">םייוניש לטב</text></g><g id="_Group_14" data-name="&lt;Group&gt;"><path id="_Compound_Path_5" data-name="&lt;Compound Path&gt;" d="M82.51,192.92l-.07-.07v-1.42H81l-.07-.07v-1.42H79.53l-.07-.07v-1.41H78.05l-.07-.07V187H76.56l-.07-.07v-1.42H75.07l-.07-.07V184H73.58l-.07-.07v-1.41H72.09l-.07-.07V181H70.61l-.07-.07v-1.42H69.12l-.07-.07V178H67.63l-.07-.07v-1.41H66.07v25.29h3v-1.42l.07-.07h1.42v-1.42l.07-.07H72v-1.42l.07-.07h1.35l.07.07v2.91h1.42l.07.07v2.9h1.42l.07.08v1.41h3v-1.41l.07-.08H81v-3H79.53l-.07-.07v-2.91H78.05l-.07-.07V195.9h6v-3ZM78,194.41H76.49v3h1.42l.07.07v2.91h1.41l.07.07v2.83l-.07.07H76.56l-.07-.07v-2.9H75.07l-.07-.07v-2.91H73.58l-.07-.07V195.9H72v1.41l-.07.07H70.54v1.42l-.07.07H69.05v1.42l-.07.07H67.56V179.53H69l.07.07V181h1.42l.07.07v1.42H72l.07.07V184h1.42l.07.07v1.42h1.42l.07.07V187h1.42l.07.07v1.42h1.42l.07.07v1.41h1.41l.07.08v1.41h1.42l.07.07v1.42h1.42l.07.07v1.42Z"/><polygon id="_Path_3" data-name="&lt;Path&gt;" class="cls-3" points="77.98 194.41 76.49 194.41 76.49 195.9 76.49 197.38 77.91 197.38 77.98 197.45 77.98 200.36 79.39 200.36 79.46 200.43 79.46 203.26 79.39 203.34 76.56 203.34 76.49 203.26 76.49 200.36 75.07 200.36 75 200.29 75 197.38 73.58 197.38 73.51 197.31 73.51 195.9 72.02 195.9 72.02 197.31 71.95 197.38 70.54 197.38 70.54 198.8 70.47 198.87 69.05 198.87 69.05 200.29 68.98 200.36 67.56 200.36 67.56 179.53 68.98 179.53 69.05 179.6 69.05 181.02 70.47 181.02 70.54 181.09 70.54 182.51 71.95 182.51 72.02 182.58 72.02 183.99 73.44 183.99 73.51 184.06 73.51 185.48 74.93 185.48 75 185.55 75 186.97 76.42 186.97 76.49 187.04 76.49 188.46 77.91 188.46 77.98 188.53 77.98 189.94 79.39 189.94 79.46 190.01 79.46 191.43 80.88 191.43 80.95 191.5 80.95 192.92 82.37 192.92 82.44 192.99 82.44 194.41 77.98 194.41"/></g><path id="_Compound_Path_6" data-name="&lt;Compound Path&gt;" d="M239.78,282.91h-5.84l-3.28-3.65H219.71l-3.29,3.65h-5.84a3.66,3.66,0,0,0-3.65,3.65v21.9a3.66,3.66,0,0,0,3.65,3.65h29.2a3.66,3.66,0,0,0,3.65-3.65v-21.9A3.66,3.66,0,0,0,239.78,282.91Zm0,25.55h-14.6v-1.82a9.13,9.13,0,0,1,0-18.25v-1.83h14.6Zm-5.47-10.95a9,9,0,0,0-9.13-9.12v3.28a5.84,5.84,0,1,1,0,11.68v3.29A9,9,0,0,0,234.31,297.51Zm-15,0a5.77,5.77,0,0,0,5.84,5.84V291.67A5.77,5.77,0,0,0,219.34,297.51Z"/><path id="_Compound_Path_7" data-name="&lt;Compound Path&gt;" d="M71.35,279.27H62.23a3.66,3.66,0,0,0-3.65,3.65v25.54a3.66,3.66,0,0,0,3.65,3.65h9.12v3.65H75V275.62H71.35Zm0,27.37H62.23l9.12-10.95Zm16.42-27.37H78.65v3.65h9.12v23.72l-9.12-10.95v16.42h9.12a3.66,3.66,0,0,0,3.65-3.65V282.92A3.66,3.66,0,0,0,87.77,279.27Z"/><path id="_Compound_Path_8" data-name="&lt;Compound Path&gt;" d="M237.61,405.94l5.22-5.21-5.22-5.22v-7.4h-7.39L225,382.9l-5.22,5.21h-7.39v7.4l-5.22,5.22,5.22,5.21v7.4h7.39l5.22,5.22,5.22-5.22h7.39ZM225,410.18V391.27a9.46,9.46,0,1,1,0,18.91Z"/><path id="_Path_4" data-name="&lt;Path&gt;" d="M74.58,394.21a17.05,17.05,0,0,0-11.24,4.24l-5.86-5.86v14.65H72.13l-5.89-5.9A13,13,0,0,1,87,407.24L90.81,406A17.13,17.13,0,0,0,74.58,394.21Z"/><g id="_Group_15" data-name="&lt;Group&gt;"><g id="_Group_16" data-name="&lt;Group&gt;"><path id="_Compound_Path_9" data-name="&lt;Compound Path&gt;" d="M241,99.42l-.17-.24c-1.44-2-3.71-4.88-6.73-8.65l-2.84,8.89h-6.15l4.41-12.34h1.62l-6.45-7.7h7.2l.18.2c.54.62,2.56,3,6,7.12l2.14-7.32h6.13L242.82,90h-2.08l7.39,9.42Zm4.68-1.18-7.38-9.42h0l-.44-.51c-3.56-4.25-5.75-6.85-6.53-7.75h-4.13l6.39,7.62,0-.1.69.86c3.26,4,5.7,7.17,7.27,9.3Zm-15.28,0,3.18-10h-3.23l-3.57,10ZM242,88.82l2.76-8.26h-3.6l-2.42,8.26Z"/></g></g></svg>