<?xml version="1.0" encoding="utf-8"?>
<svg version="1.0" xmlns="http://www.w3.org/2000/svg" xmlns:xlink="http://www.w3.org/1999/xlink" x="0px" y="0px"
	 viewBox="0 0 150 105" enable-background="new 0 0 150 105" xml:space="preserve">
<path d="M61.5,83.7h-2.4v-6.1c0-0.6-0.3-0.9-0.9-0.9H56v4.2c0,2-1,2.9-2.9,2.9c-0.2,0-0.6-0.1-1-0.2
	v-2.3c0.3,0.1,0.6,0.1,0.7,0.1c0.3,0,0.6,0,0.7-0.1c0.1-0.1,0.2-0.2,0.2-0.4v-4.3h-1.4l0.7-2.3h4.9c2.4,0,3.6,1.2,3.6,3.7V83.7z
	 M65.4,83.7h-2.4v-9.3h2.4V83.7z M69.3,79.7h-2.4v-5.3h2.4V79.7z M78.4,76.8H77v7h-2.4v-7h-4.6l0.7-2.3h7.7V76.8z M82.1,83.7h-2.4
	v-9.3h2.4V83.7z M88.9,83.7h-2.5v-2c-0.3,0-0.6,0.2-1,0.5c-0.5,0.4-1,1-1.6,1.8h-0.4v-2.7c0.2-0.5,0.7-0.9,1.2-1.1
	c0.3-0.1,0.7-0.2,1.4-0.2h0.4v-2.3c0-0.4-0.1-0.6-0.2-0.8s-0.4-0.2-0.7-0.2h-2.1l0.7-2.3h1.7c1,0,1.8,0.3,2.3,0.9
	c0.6,0.6,0.8,1.6,0.8,2.8V83.7z M92.6,79.7h-2.4v-5.3h2.4V79.7z M98.6,83.7h-4.7v-2.3h2.4v-3.9c0-0.5-0.3-0.8-0.8-0.8H94l0.6-2.3
	h0.9c2.1,0,3.1,1.1,3.1,3.3V83.7z M71.8,28.9h-9.1c-2,0-3.6,1.6-3.6,3.6v25.5c0,2,1.6,3.6,3.6,3.6h9.1v3.6h3.6V25.2h-3.6V28.9z
	 M71.8,56.2h-9.1l9.1-10.9V56.2z M88.3,28.9h-9.1v3.6h9.1v23.7l-9.1-10.9v16.4h9.1c2,0,3.6-1.6,3.6-3.6V32.5
	C91.9,30.5,90.3,28.9,88.3,28.9z"/>

</svg>
