<?xml version="1.0" encoding="utf-8"?>
<svg version="1.0" xmlns="http://www.w3.org/2000/svg" xmlns:xlink="http://www.w3.org/1999/xlink" x="0px" y="0px"
	 viewBox="0 0 150 105" enable-background="new 0 0 150 105" xml:space="preserve">
<path d="M44.7,83.7h-8.5v-9.3h4.4c2.7,0,4,1.3,4,4V83.7z M42.3,81.4v-3.6c0-0.8-0.4-1.2-1.1-1.2
	h-2.7v4.7H42.3z M48.5,79.7h-2.4v-5.3h2.4V79.7z M58.1,79.3c0,1.5-0.4,2.6-1.3,3.4c-0.7,0.7-1.7,1-2.8,1h-4.5v-2.2h2.4
	c-0.3-0.8-0.6-1.9-1-3.4c-0.3-1.4-0.6-2.6-0.8-3.7h2.4c0.3,1.9,0.7,3.9,1.5,6l-1.3,0.9v0.1h1.1c0.7,0,1.3-0.2,1.5-0.5
	c0.2-0.3,0.4-0.8,0.4-1.5v-5h2.4V79.3z M67.6,81.5L67,83.7h-7.6v-2.2h4.8v-3.7c0-0.4,0-0.6-0.1-0.8c-0.1-0.2-0.4-0.3-0.7-0.3h-3.9
	l0.8-2.3h2.9c2.3,0,3.4,1.2,3.4,3.6l0,3.4H67.6z M76.2,82.2l-1.3,1.5h-6.7v-2.3h4.4l-4.7-5.8l2-1.5l3.4,4.3c0.4-0.5,0.6-1.2,0.6-2.3
	v-1.7h2.5v1.8c0,1.3-0.3,2.3-1,2.8h-1.6L76.2,82.2z M88.5,85.7l-2.4,1.2v-9.1c0-0.4-0.1-0.7-0.2-0.8c-0.1-0.2-0.4-0.2-0.8-0.2h-3.9
	l0.8-2.3h2.8c2.5,0,3.7,1.3,3.7,4V85.7z M92.4,83.7H90v-9.3h2.4V83.7z M102,79.8c0,2.6-1.3,3.9-3.8,3.9h-4v-2.2h4.2
	c0.5,0,0.9-0.1,1-0.3c0.1-0.2,0.2-0.5,0.2-1.1v-2.4c0-0.5-0.1-0.8-0.3-0.9c-0.2-0.1-0.5-0.2-0.9-0.2h-1.5c-0.6,0-0.9,0.3-0.9,0.9
	v0.1c0,0.3,0.1,0.5,0.2,0.6c0.1,0.1,0.4,0.1,0.9,0.1c0.2,0,0.5,0,0.9-0.1l-0.5,2c-0.3,0.1-0.6,0.1-0.8,0.1c-2.1,0-3.1-0.9-3.1-2.7
	c0-1.1,0.4-1.9,1.2-2.6c0.7-0.5,1.7-0.8,3-0.8c1.5,0,2.5,0.3,3.2,1c0.7,0.7,1.1,1.7,1.1,3V79.8z M105.7,79.7h-2.4v-5.3h2.4V79.7z
	 M115.1,83.7h-2.4v-5.9c0-0.7-0.3-1.1-1-1.1h-4.9l0.8-2.3h3.7c2.6,0,3.8,1.3,3.8,3.8V83.7z M109.5,83.7h-2.4v-4.8h2.4V83.7z
	 M86.7,37.5L75.5,26.3L64.4,37.5c-6.1,6.1-6.1,16.1,0,22.2c3.1,3.1,7.1,4.6,11.1,4.6s8.1-1.5,11.1-4.6
	C92.8,53.5,92.8,43.6,86.7,37.5z M75.5,60.3c-3.1,0-6.1-1.2-8.3-3.5c-2.2-2.2-3.5-5.2-3.5-8.3c0-3.1,1.2-6.1,3.5-8.3l8.3-8.3V60.3z"
	/>

</svg>
