<?xml version="1.0" encoding="utf-8"?>
<svg version="1.0" xmlns="http://www.w3.org/2000/svg" xmlns:xlink="http://www.w3.org/1999/xlink" x="0px" y="0px"
	 viewBox="0 0 150 105" enable-background="new 0 0 150 105" xml:space="preserve">
<path d="M53.3,84.1h-2.4v-5.9c0-0.7-0.3-1.1-1-1.1h-4.1l0.8-2.3h2.9c2.6,0,3.8,1.3,3.8,4V84.1z
	 M57.2,84.1h-2.4v-9.3h2.4V84.1z M66.8,80.2c0,2.6-1.3,3.9-3.8,3.9h-4v-2.2h4.2c0.5,0,0.9-0.1,1-0.3c0.1-0.2,0.2-0.5,0.2-1.1v-2.4
	c0-0.5-0.1-0.8-0.3-0.9C63.9,77,63.6,77,63.2,77h-1.5c-0.6,0-0.9,0.3-0.9,0.9v0.1c0,0.3,0.1,0.5,0.2,0.6c0.1,0.1,0.4,0.1,0.9,0.1
	c0.2,0,0.5,0,0.9-0.1l-0.5,2c-0.3,0.1-0.6,0.1-0.8,0.1c-2.1,0-3.1-0.9-3.1-2.7c0-1.1,0.4-1.9,1.2-2.6c0.7-0.5,1.7-0.8,3-0.8
	c1.5,0,2.5,0.3,3.2,1c0.7,0.7,1.1,1.7,1.1,3V80.2z M76.9,82.8l-1.8,1.6l-4.3-4.8c-0.2,0.2-0.4,0.5-0.5,0.9c0,0.1,0,0.5,0,1.1v2.6
	h-2.4v-2.2c0-0.8,0-1.4,0.1-1.8c0.1-0.6,0.4-1,0.8-1.2h1.4l-2.6-2.8l1.8-1.6l4,4.5c0.3-0.3,0.4-1,0.4-1.8v-2.4h2.4v2
	c0,1.5-0.3,2.4-1,2.9H74L76.9,82.8z M84.2,80.1h-2.4v-5.3h2.4V80.1z M90.2,84.1h-4.7v-2.3h2.4v-3.9c0-0.5-0.3-0.8-0.8-0.8h-1.5
	l0.6-2.3h0.9c2.1,0,3.1,1.1,3.1,3.3V84.1z M94,84.1h-2.4v-9.3H94V84.1z M98,84.1h-2.4v-9.3H98V84.1z M104.8,84.1h-2.5v-2
	c-0.3,0-0.6,0.2-1,0.5c-0.5,0.4-1,1-1.6,1.8h-0.4v-2.7c0.2-0.5,0.7-0.9,1.2-1.1c0.3-0.1,0.7-0.2,1.4-0.2h0.4v-2.3
	c0-0.4-0.1-0.6-0.2-0.8s-0.4-0.2-0.7-0.2h-2.1l0.7-2.3h1.7c1,0,1.8,0.3,2.3,0.9c0.6,0.6,0.8,1.6,0.8,2.8V84.1z M90.3,32.9h-5.8
	l-3.3-3.7h-11l-3.3,3.7h-5.8c-2,0-3.7,1.6-3.7,3.7v21.9c0,2,1.6,3.7,3.7,3.7h29.2c2,0,3.7-1.6,3.7-3.7V36.5
	C93.9,34.5,92.3,32.9,90.3,32.9z M90.3,58.4H75.7v-1.8c-5.1,0-9.1-4-9.1-9.1s4-9.1,9.1-9.1v-1.8h14.6V58.4z M84.8,47.5
	c0-5.1-4-9.1-9.1-9.1v3.3c3.3,0,5.8,2.6,5.8,5.8c0,3.3-2.6,5.8-5.8,5.8v3.3C80.8,56.6,84.8,52.6,84.8,47.5z M69.8,47.5
	c0,3.3,2.6,5.8,5.8,5.8V41.6C72.4,41.6,69.8,44.2,69.8,47.5z"/>
</svg>
