<?xml version="1.0" encoding="utf-8"?>
<svg version="1.0" xmlns="http://www.w3.org/2000/svg" xmlns:xlink="http://www.w3.org/1999/xlink" x="0px" y="0px"
	 viewBox="0 0 150 105" enable-background="new 0 0 150 105" xml:space="preserve">
<path d="M46.5,83.6H38v-9.3h4.4c2.7,0,4,1.3,4,4V83.6z M44.2,81.4v-3.6c0-0.8-0.4-1.2-1.1-1.2h-2.7
	v4.7H44.2z M50.3,79.6h-2.4v-5.3h2.4V79.6z M54.1,79.6h-2.4v-5.3h2.4V79.6z M58.1,83.6h-2.4v-9.3h2.4V83.6z M64,83.6h-4.7v-2.3h2.4
	v-3.9c0-0.5-0.3-0.8-0.8-0.8h-1.5l0.6-2.3H61c2.1,0,3.1,1.1,3.1,3.3V83.6z M67.8,79.6h-2.4v-5.3h2.4V79.6z M74.5,81.4L74.5,81.4
	l1.1,0.1c1.5,0,2.2-0.6,2.2-1.8v-5.3h2.4V79c0,1.4-0.4,2.5-1.2,3.3c-0.9,0.9-2.3,1.4-4.2,1.4h-0.5c-1.7,0-3-0.4-3.9-1.3
	c-0.8-0.8-1.1-1.9-1.1-3.2v-4.8h2.4v5.3c0,1.1,0.5,1.7,1.6,1.8c0.2,0,0.3-0.1,0.3-0.3v-6.8H76v5.9L74.5,81.4z M92.9,77.1
	c0,2.9-1.3,5.2-3.9,6.8l-1.5-1.8c1.1-0.7,1.9-1.3,2.3-2.1c0.5-0.7,0.7-1.6,0.7-2.8v-0.6h-5.1v-4.4h2.4v2.1h5.1V77.1z M103,79.8
	c0,1.4-0.3,2.3-0.9,3c-0.7,0.7-1.7,1-3.2,1h-0.3c-1.5,0-2.5-0.3-3.1-0.8c-0.6-0.6-0.9-1.5-0.9-2.9v-5.7h2.4v5.9
	c0,0.5,0.1,0.9,0.4,1.1c0.2,0.1,0.6,0.2,1.3,0.2H99c0.6,0,1-0.1,1.2-0.3c0.3-0.2,0.4-0.6,0.4-1.2v-3.5c-0.9,0.1-1.6,0.6-2.1,1.4
	h-0.3v-2.6c0.7-0.6,1.8-1,3.3-1h1.3V79.8z M112.5,81.4l-0.6,2.2h-7.6v-2.2h4.8v-3.7c0-0.4,0-0.6-0.1-0.8c-0.1-0.2-0.4-0.3-0.7-0.3
	h-3.9l0.8-2.3h2.9c2.3,0,3.4,1.2,3.4,3.6l0,3.4H112.5z M75.3,38.7c-4.3,0-8.2,1.6-11.2,4.2L58.2,37v14.7h14.7l-5.9-5.9
	c2.3-1.9,5.1-3.1,8.3-3.1c5.8,0,10.7,3.8,12.4,9l3.9-1.3C89.2,43.6,82.8,38.7,75.3,38.7z"/>

</svg>
