<?xml version="1.0" encoding="utf-8"?>
<!-- Generator: Adobe Illustrator 19.0.0, SVG Export Plug-In . SVG Version: 6.00 Build 0)  -->
<svg version="1.0" xmlns="http://www.w3.org/2000/svg" xmlns:xlink="http://www.w3.org/1999/xlink" x="0px" y="0px"
	 viewBox="0 0 150 105" enable-background="new 0 0 150 105" xml:space="preserve">
<path d="M61.1,85.9l-2.4,1V74.5h2.4V85.9z M71.2,80c0,1.4-0.3,2.3-0.9,3c-0.7,0.7-1.7,1-3.2,1h-0.3
	c-1.5,0-2.5-0.3-3.1-0.8c-0.6-0.6-0.9-1.5-0.9-2.9v-5.7H65v5.9c0,0.5,0.1,0.9,0.4,1.1c0.2,0.1,0.6,0.2,1.3,0.2h0.5
	c0.6,0,1-0.1,1.2-0.3c0.3-0.2,0.4-0.6,0.4-1.2v-3.5c-0.9,0.1-1.6,0.6-2.1,1.4h-0.3v-2.6c0.7-0.6,1.8-1,3.3-1h1.3V80z M81.1,77.4
	c0,1.4-0.2,2.6-0.6,3.6c-0.5,1.1-1.3,2-2.4,2.9l-1.6-1.7c1-0.7,1.6-1.4,2-2.2c0.3-0.6,0.4-1.5,0.4-2.6v-0.6h-6.5l0.7-2.3h8.2V77.4z
	 M75.2,85.9l-2.4,1v-8.4h2.4V85.9z M90.6,83.7h-2.4v-5.9c0-0.7-0.3-1.1-1-1.1h-4.9l0.8-2.3h3.7c2.6,0,3.8,1.3,3.8,3.8V83.7z
	 M85,83.7h-2.4v-4.8H85V83.7z M66.7,50.6h-1.8L64.3,50c2.2-2.5,3.5-5.8,3.5-9.4c0-8-6.5-14.4-14.4-14.4s-14.4,6.5-14.4,14.4
	S45.4,55,53.4,55c3.6,0,6.9-1.3,9.4-3.5l0.6,0.6v1.8L74.5,65l3.3-3.3L66.7,50.6z M53.4,50.6c-5.5,0-10-4.5-10-10s4.5-10,10-10
	s10,4.5,10,10S58.9,50.6,53.4,50.6z M54.5,39.4h-2.2h-0.3h-4.1v2.2h4.1h0.3h2.2h4.4v-2.2H54.5z M91.5,59.1l-0.2-0.2
	c-1.4-2-3.7-4.9-6.7-8.6l-2.8,8.9h-6.2L80,46.7h1.6L75.2,39h7.2l0.2,0.2c0.5,0.6,2.6,3,6,7.1l2.1-7.3h6.1l-3.6,10.6h-2.1l7.4,9.4
	H91.5z M96.2,57.9l-7.4-9.4h0l-0.4-0.5c-3.6-4.2-5.8-6.8-6.5-7.7h-4.1l6.4,7.6l0-0.1l0.7,0.9c3.3,4,5.7,7.2,7.3,9.3H96.2z
	 M80.9,57.9l3.2-10h-3.2l-3.6,10H80.9z M92.5,48.5l2.8-8.3h-3.6l-2.4,8.3H92.5z"/>
</svg>
