<?xml version="1.0" encoding="utf-8"?>
<svg version="1.0" xmlns="http://www.w3.org/2000/svg" xmlns:xlink="http://www.w3.org/1999/xlink" x="0px" y="0px"
	 viewBox="0 0 150 105" enable-background="new 0 0 150 105" xml:space="preserve">
<path d="M66.6,77.2c0,2.9-1.3,5.2-3.9,6.8l-1.5-1.8c1.1-0.7,1.9-1.3,2.3-2.1
	c0.5-0.7,0.7-1.6,0.7-2.8v-0.6h-5.1v-4.4h2.4v2.1h5.1V77.2z M75.7,76.8h-1.4v7H72v-7h-4.6l0.7-2.3h7.7V76.8z M82.2,83.7h-2.5v-2
	c-0.3,0-0.6,0.2-1,0.5c-0.5,0.4-1,1-1.6,1.8h-0.4v-2.7c0.2-0.5,0.7-0.9,1.2-1.1c0.3-0.1,0.7-0.2,1.4-0.2h0.4v-2.3
	c0-0.4-0.1-0.6-0.2-0.8s-0.4-0.2-0.7-0.2h-2.1l0.7-2.3h1.7c1,0,1.8,0.3,2.3,0.9c0.6,0.6,0.8,1.6,0.8,2.8V83.7z M91.6,83.7h-2.4v-5.9
	c0-0.7-0.3-1.1-1-1.1h-4.9l0.8-2.3h3.7c2.6,0,3.8,1.3,3.8,3.8V83.7z M86,83.7h-2.4v-4.8H86V83.7z M66.5,50.6h-1.8L64.2,50
	c2.2-2.5,3.5-5.8,3.5-9.4c0-8-6.5-14.4-14.4-14.4s-14.4,6.5-14.4,14.4S45.2,55,53.2,55c3.6,0,6.9-1.3,9.4-3.5l0.6,0.6v1.8L74.3,65
	l3.3-3.3L66.5,50.6z M53.2,50.6c-5.5,0-10-4.5-10-10s4.5-10,10-10s10,4.5,10,10S58.7,50.6,53.2,50.6z M58.8,41.7h-4.4v4.4h-2.2v-4.4
	h-4.4v-2.2h4.4V35h2.2v4.4h4.4V41.7z M101.9,59.1l-0.3-0.4c-2.4-3.3-6.3-8.3-11.4-14.6l-4.8,15.1H75l7.5-20.9h2.7l-10.9-13h12.2
	l0.3,0.3c0.9,1,4.3,5.1,10.2,12.1l3.6-12.4H111l-6,18h-3.5l12.5,16H101.9z M109.8,57.1l-12.5-16h0l-0.7-0.9
	c-6-7.2-9.7-11.6-11.1-13.1h-7L89.4,40l0.1-0.2l1.2,1.4c5.5,6.8,9.7,12.2,12.3,15.8H109.8z M84,57.1l5.4-16.9h-5.5l-6,16.9H84z
	 M103.5,41.1l4.7-14h-6.1l-4.1,14H103.5z"/>

</svg>
